<?xml version="1.0" standalone="no"?>
<!DOCTYPE svg PUBLIC "-//W3C//DTD SVG 20010904//EN"
 "http://www.w3.org/TR/2001/REC-SVG-20010904/DTD/svg10.dtd">
<svg version="1.0" xmlns="http://www.w3.org/2000/svg"
 width="260.000000pt" height="260.000000pt" viewBox="0 0 260.000000 260.000000"
 preserveAspectRatio="xMidYMid meet">
<metadata>
Created by potrace 1.11, written by Peter Selinger 2001-2013
</metadata>
<g transform="translate(0.000000,260.000000) scale(0.100000,-0.100000)"
fill="#000000" stroke="none">
<path d="M900 2020 c-5 -3 -10 -248 -12 -545 -3 -501 -4 -543 -21 -577 -43
-87 -117 -129 -214 -124 -111 7 -174 64 -187 171 -2 22 -5 42 -5 45 -1 3 -63
5 -138 4 l-138 0 3 -63 c5 -95 44 -184 112 -252 81 -82 190 -125 331 -132 250
-12 443 108 515 321 23 66 23 72 24 610 0 298 -3 542 -7 543 -46 3 -257 3
-263 -1z"/>
<path d="M1454 2021 c-2 -2 -4 -331 -4 -730 l0 -726 140 0 140 0 2 300 3 300
310 3 311 2 0 114 0 113 -313 -1 -313 -1 0 198 0 197 28 1 c15 0 173 1 351 2
l325 2 1 96 c0 53 -2 105 -5 115 -5 18 -24 19 -488 19 -266 0 -486 -2 -488 -4z"/>
</g>
</svg>
